<svg xmlns="http://www.w3.org/2000/svg" width="1920" height="1080" viewBox="0 0 1920 1080">
  <defs>
    <style>
      .cls-1 {
        fill-rule: evenodd;
      }
    </style>
  </defs>
  <path id="SVG_Text" data-name="SVG Text" class="cls-1" d="M315.7,572.8c18.3,29.4,44.7,44.4,79.2,44.4,45.6,0,75.6-27.6,75.6-67.5,0-21.3-8.4-39-23.1-50.7-13.2-10.5-32.7-16.8-54.9-26.4-17.7-7.8-26.4-15.9-26.4-27,0-11.7,9.3-20.1,24.3-20.1s27.9,8.1,39.6,24.6l34.8-24.9c-15.6-25.5-39.9-38.7-71.7-38.7-43.8,0-71.1,24.9-71.1,63.6,0,20.4,7.8,37.2,23.1,49.2,13.8,10.8,32.7,17.1,54.3,26.1,16.5,6.9,24.3,15.9,24.3,27.9,0,13.2-10.8,23.1-27.6,23.1-17.7,0-30-9.6-42.6-30.3Zm298.8,38.7,67.2-219.3H633.1L589,545.5,544.6,392.2H496l67.2,219.3h51.3Zm99.894-90.3c0,33.9,1.5,57,19.5,75.6,12.3,12.9,31.2,20.4,53.4,20.4,20.1,0,34.5-6.3,47.4-20.7l6.9,17.7h21.6V495.4h-74.7v37.5h25.5v8.4c0,22.8-7.5,33.3-25.2,33.3-24,0-25.2-15.6-25.2-45.3V474.4c0-30,1.2-45.3,25.2-45.3,15.3,0,24,8.7,25.2,24.9h49.2c-2.1-42.3-30-67.5-74.4-67.5-23.4,0-42.3,7.2-54.9,20.4-18,18.6-19.5,42-19.5,75.6v38.7Zm303.888,90.3h48.6V434.8h55.51V392.2H962.784v42.6h55.5V611.5Zm208.5-40.8c-15,7.2-27.6,10.8-38.4,10.8-20.1,0-31.5-10.8-31.5-29.1V540.1h74.1V505.6c0-34.8-21.3-56.7-55.8-56.7-36.9,0-57.3,22.5-57.3,64.5v37.2c0,41.7,22.2,64.5,63,64.5,16.2,0,33-3.9,51-11.4Zm-69.9-54.3V501.7c0-16.8,7.8-25.8,19.5-25.8,12.9,0,19.5,9,19.5,26.7v13.8h-39Zm230.11,95.1-45.3-80.4,42.3-79.2h-44.1l-20.4,42.3-20.41-42.3h-44.1l42.3,79.2-45.6,80.4h44.7l23.11-44.7,23.1,44.7h44.4Zm78.6-129.3h29.1V451.9h-29.1V394.6h-42.01v57.3h-23.4v30.3h23.4v79.2c0,39,13.5,53.7,54.61,53.7,5.1,0,11.4,0,17.7-.6V579.1c-2.1,0-3.9.3-5.7,0.3-20.4,0-24.6-8.7-24.6-33.3V482.2Z"/>
</svg>
